# xmcd
#
# Track frame offsets: 
#        150
#        11137
#        23005
#        33692
#        43329
#        59229
#        67685
#        82628
#        95434
#        104959
#        118252
#        132745
#        140095
#        156651
#        166438
#        185038
#        193213
#
# Disc length: 2726 seconds
#
# Revision: 0
# Processed by: cddbd v1.5.2PL0 Copyright (c) Steve Scherf et al.
# Submitted via: ExactAudioCopy v0.99pb4
#
DISCID=0c0aa411
DTITLE=Тризубий Стас - Я повертаюся. Vol. 1
DYEAR=2004
DGENRE=Art Song
TTITLE0=Ангола
TTITLE1=Повний абзац
TTITLE2=Демократиза-ція
TTITLE3=Мілі, санти, кільо..
TTITLE4=Як Президента обирали
TTITLE5=Лічилка
TTITLE6=Чорнобильський метелик
TTITLE7=Щури
TTITLE8=Вітамін 'Ю'
TTITLE9=Вколіть анальгіну!
TTITLE10=Сімейно-політична
TTITLE11=Гімнастика
TTITLE12=Космічна
TTITLE13=Їсти дай!
TTITLE14=Ми є такі
TTITLE15=Землетрус
TTITLE16=Глобус України
EXTD=
EXTT0=
EXTT1=
EXTT2=
EXTT3=
EXTT4=
EXTT5=
EXTT6=
EXTT7=
EXTT8=
EXTT9=
EXTT10=
EXTT11=
EXTT12=
EXTT13=
EXTT14=
EXTT15=
EXTT16=
PLAYORDER=
